<svg height="512pt" viewBox="-19 0 512 512" width="512pt" xmlns="http://www.w3.org/2000/svg"><path d="m458.785156 128c-24.027344-41.613281-70.3125-62.527344-115.222656-56.425781-17.167969-41.945313-58.425781-71.574219-106.480469-71.574219-48.050781 0-89.308593 29.628906-106.476562 71.574219-44.910157-6.105469-91.199219 14.8125-115.222657 56.425781-24.027343 41.613281-18.996093 92.15625 8.746094 128-27.742187 35.84375-32.773437 86.386719-8.746094 128 21.277344 36.851562 60.007813 57.476562 99.785157 57.476562 5.140625 0 10.296875-.351562 15.4375-1.050781 17.167969 41.945313 58.425781 71.574219 106.476562 71.574219 48.054688 0 89.3125-29.628906 106.480469-71.574219 5.140625.695313 10.296875 1.050781 15.4375 1.050781 39.773438 0 78.511719-20.625 99.785156-57.476562 24.027344-41.613281 18.996094-92.15625-8.746094-128 27.742188-35.84375 32.773438-86.386719 8.746094-128zm-99.730468-27.535156c7.382812 0 14.816406.96875 22.140624 2.929687 21.929688 5.878907 40.257813 19.941407 51.609376 39.605469 11.351562 19.664062 14.371093 42.570312 8.492187 64.5-2.660156 9.925781-7.011719 19.101562-12.785156 27.238281-3.730469-2.8125-7.667969-5.433593-11.820313-7.832031l-64.609375-37.300781v-74.605469c0-4.796875-.296875-9.519531-.871093-14.164062 2.605468-.242188 5.222656-.371094 7.84375-.371094zm-37.195313 302.375c-1.742187-.851563-3.46875-1.746094-5.164063-2.726563l-49.613281-28.644531 55-31.753906v57.285156c0 1.964844-.089843 3.910156-.222656 5.839844zm-84.777344-48.691406-85-49.074219v-98.148438l85-49.074219 85 49.074219v98.148438zm-84.773437 48.691406c-.132813-1.929688-.226563-3.875-.226563-5.839844v-57.285156l55 31.753906-49.609375 28.644531c-1.695312.980469-3.421875 1.871094-5.164062 2.726563zm-30.226563-115.085938-49.605469-28.640625c-1.699218-.980469-3.339843-2.03125-4.949218-3.113281 1.609375-1.082031 3.25-2.132812 4.949218-3.113281l49.605469-28.640625zm30.226563-178.617187c1.746094.855469 3.46875 1.769531 5.167968 2.75l49.605469 28.644531-55 31.753906v-57.285156c0-1.972656.09375-3.925781.226563-5.863281zm169.550781 0c.132813 1.9375.222656 3.890625.222656 5.863281v57.285156l-55-31.753906 49.613281-28.644531c1.695313-.980469 3.417969-1.894531 5.164063-2.75zm30.222656 115.109375 49.609375 28.640625c1.699219.980469 3.339844 2.03125 4.949219 3.113281-1.609375 1.082031-3.25 2.132812-4.949219 3.113281l-49.609375 28.640625zm-115-194.246094c34.242188 0 63.800781 20.363281 77.253907 49.605469-4.285157 1.820312-8.511719 3.914062-12.644532 6.300781l-64.609375 37.304688-64.605469-37.304688c-4.132812-2.386719-8.355468-4.480469-12.644531-6.300781 13.453125-29.242188 43.011719-49.605469 77.25-49.605469zm-195.71875 113c11.351563-19.664062 29.679688-33.726562 51.609375-39.605469 7.324219-1.960937 14.757813-2.929687 22.140625-2.929687 2.621094 0 5.238281.125 7.84375.371094-.574219 4.644531-.875 9.367187-.875 14.164062v74.605469l-64.605469 37.300781c-4.152343 2.398438-8.089843 5.015625-11.820312 7.832031-5.773438-8.136719-10.125-17.3125-12.785156-27.238281-5.878906-21.929688-2.859375-44.835938 8.492187-64.5zm51.613281 265.605469c-21.933593-5.878907-40.261718-19.941407-51.613281-39.605469-11.351562-19.664062-14.371093-42.570312-8.492187-64.5 2.660156-9.925781 7.011718-19.101562 12.785156-27.238281 3.730469 2.8125 7.667969 5.433593 11.820312 7.832031l64.605469 37.300781v74.605469c0 4.789062.300781 9.511719.871094 14.152344-9.929687.929687-20.054687.109375-29.976563-2.546875zm144.105469 73.394531c-34.242187 0-63.800781-20.367188-77.253906-49.613281 4.289063-1.820313 8.515625-3.90625 12.648437-6.292969l64.605469-37.304688 64.609375 37.304688c4.136719 2.386719 8.359375 4.472656 12.648438 6.292969-13.453125 29.246093-43.011719 49.613281-77.257813 49.613281zm195.722657-113c-11.351563 19.664062-29.679688 33.726562-51.609376 39.605469-9.925781 2.65625-20.046874 3.476562-29.980468 2.546875.570312-4.640625.871094-9.359375.871094-14.152344v-74.605469l64.609374-37.300781c4.148438-2.394531 8.085938-5.015625 11.820313-7.828125 5.769531 8.136719 10.125 17.3125 12.78125 27.238281 5.878906 21.925782 2.859375 44.832032-8.492187 64.496094zm-150.722657-113c0 24.8125-20.183593 45-45 45-24.8125 0-45-20.1875-45-45s20.1875-45 45-45c24.816407 0 45 20.1875 45 45zm0 0" fill="#00c1fd"/><g fill="#08a8ee"><path d="m282.082031 256c0-24.8125-20.183593-45-45-45v90c24.816407 0 45-20.1875 45-45zm0 0"/><path d="m458.785156 128c-24.027344-41.613281-70.3125-62.527344-115.222656-56.425781-17.167969-41.945313-58.425781-71.574219-106.480469-71.574219v30c34.242188 0 63.800781 20.363281 77.253907 49.605469-4.285157 1.820312-8.511719 3.914062-12.644532 6.300781l-64.609375 37.304688v34.640624l85 49.074219v98.148438l-85 49.074219v34.640624l64.609375 37.304688c4.136719 2.386719 8.359375 4.472656 12.648438 6.289062-13.453125 29.25-43.011719 49.617188-77.257813 49.617188v30c48.054688 0 89.3125-29.628906 106.480469-71.574219 5.140625.695313 10.296875 1.050781 15.4375 1.050781 39.773438 0 78.511719-20.625 99.785156-57.476562 24.027344-41.613281 18.996094-92.15625-8.746094-128 27.742188-35.84375 32.773438-86.386719 8.746094-128zm-136.703125 269c0 1.964844-.089843 3.910156-.222656 5.839844-1.742187-.851563-3.46875-1.746094-5.164063-2.726563l-49.613281-28.644531 55-31.753906zm0-224.714844-55-31.753906 49.613281-28.644531c1.695313-.980469 3.421876-1.894531 5.164063-2.75.132813 1.941406.226563 3.890625.226563 5.863281v57.285156zm110.722657 196.714844c-11.351563 19.664062-29.679688 33.726562-51.609376 39.605469-9.925781 2.65625-20.046874 3.476562-29.980468 2.546875.570312-4.640625.871094-9.359375.871094-14.152344v-74.605469l64.609374-37.300781c4.148438-2.394531 8.085938-5.015625 11.820313-7.828125 5.769531 8.136719 10.125 17.3125 12.78125 27.238281 5.878906 21.925782 2.859375 44.832032-8.492187 64.496094zm-80.722657-81.246094v-63.507812l49.609375 28.640625c1.699219.980469 3.339844 2.03125 4.949219 3.113281-1.609375 1.082031-3.25 2.132812-4.949219 3.109375zm89.214844-80.253906c-2.660156 9.925781-7.011719 19.101562-12.785156 27.238281-3.730469-2.8125-7.667969-5.433593-11.820313-7.832031l-64.609375-37.300781v-74.605469c0-4.796875-.296875-9.519531-.871093-14.164062 2.605468-.242188 5.21875-.371094 7.84375-.371094 7.382812 0 14.816406.96875 22.136718 2.929687 21.933594 5.878907 40.261719 19.941407 51.613282 39.605469 11.351562 19.664062 14.371093 42.570312 8.492187 64.5zm0 0"/></g></svg>